# xmcd
#
# Track frame offsets: 
#        150
#        27057
#        48564
#        70414
#        92680
#        113588
#        139314
#        168322
#        191126
#        222856
#        245905
#        273944
#
# Disc length: 4056 seconds
#
# Revision: 2
# Processed by: cddbd v1.5.1PL2 Copyright (c) Steve Scherf et al.
# Submitted via: ExactAudioCopy v0.95b3
#
DISCID=b10fd60c
DTITLE=Damh the Bard - The hills they are hollow
DYEAR=2003
DGENRE=Folk
TTITLE0=The hills they are hollw
TTITLE1=Lady of the silver wheel
TTITLE2=John Barleycorn
TTITLE3=Grimspound
TTITLE4=Ever with me
TTITLE5=Only Son
TTITLE6=The Mabon
TTITLE7=The Voyage of Bran
TTITLE8=Samhain Eve
TTITLE9=The Greenwod Grove
TTITLE10=Merlin am I
TTITLE11=The land of the ever young
EXTD=YEAR: 2003
EXTT0=
EXTT1=
EXTT2=
EXTT3=
EXTT4=
EXTT5=
EXTT6=
EXTT7=
EXTT8=
EXTT9=
EXTT10=
EXTT11=
PLAYORDER=
